<?xml version="1.0" encoding="utf-8" standalone="no"?>
<!DOCTYPE svg PUBLIC "-//W3C//DTD SVG 1.1//EN"
  "http://www.w3.org/Graphics/SVG/1.1/DTD/svg11.dtd">
<!-- Created with matplotlib (https://matplotlib.org/) -->
<svg height="345.6pt" version="1.1" viewBox="0 0 460.8 345.6" width="460.8pt" xmlns="http://www.w3.org/2000/svg" xmlns:xlink="http://www.w3.org/1999/xlink">
 <metadata>
  <rdf:RDF xmlns:cc="http://creativecommons.org/ns#" xmlns:dc="http://purl.org/dc/elements/1.1/" xmlns:rdf="http://www.w3.org/1999/02/22-rdf-syntax-ns#">
   <cc:Work>
    <dc:type rdf:resource="http://purl.org/dc/dcmitype/StillImage"/>
    <dc:date>2020-09-23T17:18:30.973080</dc:date>
    <dc:format>image/svg+xml</dc:format>
    <dc:creator>
     <cc:Agent>
      <dc:title>Matplotlib v3.3.1, https://matplotlib.org/</dc:title>
     </cc:Agent>
    </dc:creator>
   </cc:Work>
  </rdf:RDF>
 </metadata>
 <defs>
  <style type="text/css">*{stroke-linecap:butt;stroke-linejoin:round;}</style>
 </defs>
 <g id="figure_1">
  <g id="patch_1">
   <path d="M 0 345.6 
L 460.8 345.6 
L 460.8 0 
L 0 0 
z
" style="fill:#ffffff;"/>
  </g>
  <g id="axes_1">
   <g id="patch_2">
    <path d="M 50.092685 192.71 
L 450 192.71 
L 450 10.8 
L 50.092685 10.8 
z
" style="fill:#ffffff;"/>
   </g>
   <g id="patch_3">
    <path clip-path="url(#p78230dac61)" d="M 68.27029 69280.247997 
L 70.646448 69280.247997 
L 70.646448 161.640441 
L 68.27029 161.640441 
z
" style="fill:#1f77b4;"/>
   </g>
   <g id="patch_4">
    <path clip-path="url(#p78230dac61)" d="M 80.151078 69280.247997 
L 82.527235 69280.247997 
L 82.527235 69280.247997 
L 80.151078 69280.247997 
z
" style="fill:#1f77b4;"/>
   </g>
   <g id="patch_5">
    <path clip-path="url(#p78230dac61)" d="M 92.031865 69280.247997 
L 94.408023 69280.247997 
L 94.408023 162.584382 
L 92.031865 162.584382 
z
" style="fill:#1f77b4;"/>
   </g>
   <g id="patch_6">
    <path clip-path="url(#p78230dac61)" d="M 103.912653 69280.247997 
L 106.288811 69280.247997 
L 106.288811 69280.247997 
L 103.912653 69280.247997 
z
" style="fill:#1f77b4;"/>
   </g>
   <g id="patch_7">
    <path clip-path="url(#p78230dac61)" d="M 115.793441 69280.247997 
L 118.169598 69280.247997 
L 118.169598 152.423948 
L 115.793441 152.423948 
z
" style="fill:#1f77b4;"/>
   </g>
   <g id="patch_8">
    <path clip-path="url(#p78230dac61)" d="M 127.674229 69280.247997 
L 130.050386 69280.247997 
L 130.050386 69280.247997 
L 127.674229 69280.247997 
z
" style="fill:#1f77b4;"/>
   </g>
   <g id="patch_9">
    <path clip-path="url(#p78230dac61)" d="M 139.555016 69280.247997 
L 141.931174 69280.247997 
L 141.931174 69280.247997 
L 139.555016 69280.247997 
z
" style="fill:#1f77b4;"/>
   </g>
   <g id="patch_10">
    <path clip-path="url(#p78230dac61)" d="M 151.435804 69280.247997 
L 153.811962 69280.247997 
L 153.811962 156.953478 
L 151.435804 156.953478 
z
" style="fill:#1f77b4;"/>
   </g>
   <g id="patch_11">
    <path clip-path="url(#p78230dac61)" d="M 163.316592 69280.247997 
L 165.692749 69280.247997 
L 165.692749 69280.247997 
L 163.316592 69280.247997 
z
" style="fill:#1f77b4;"/>
   </g>
   <g id="patch_12">
    <path clip-path="url(#p78230dac61)" d="M 175.19738 69280.247997 
L 177.573537 69280.247997 
L 177.573537 170.858291 
L 175.19738 170.858291 
z
" style="fill:#1f77b4;"/>
   </g>
   <g id="patch_13">
    <path clip-path="url(#p78230dac61)" d="M 187.078167 69280.247997 
L 189.454325 69280.247997 
L 189.454325 134.768118 
L 187.078167 134.768118 
z
" style="fill:#1f77b4;"/>
   </g>
   <g id="patch_14">
    <path clip-path="url(#p78230dac61)" d="M 198.958955 69280.247997 
L 201.335113 69280.247997 
L 201.335113 69280.247997 
L 198.958955 69280.247997 
z
" style="fill:#1f77b4;"/>
   </g>
   <g id="patch_15">
    <path clip-path="url(#p78230dac61)" d="M 210.839743 69280.247997 
L 213.2159 69280.247997 
L 213.2159 171.325448 
L 210.839743 171.325448 
z
" style="fill:#1f77b4;"/>
   </g>
   <g id="patch_16">
    <path clip-path="url(#p78230dac61)" d="M 222.720531 69280.247997 
L 225.096688 69280.247997 
L 225.096688 173.901408 
L 222.720531 173.901408 
z
" style="fill:#1f77b4;"/>
   </g>
   <g id="patch_17">
    <path clip-path="url(#p78230dac61)" d="M 234.601318 69280.247997 
L 236.977476 69280.247997 
L 236.977476 69280.247997 
L 234.601318 69280.247997 
z
" style="fill:#1f77b4;"/>
   </g>
   <g id="patch_18">
    <path clip-path="url(#p78230dac61)" d="M 246.482106 69280.247997 
L 248.858264 69280.247997 
L 248.858264 161.551025 
L 246.482106 161.551025 
z
" style="fill:#1f77b4;"/>
   </g>
   <g id="patch_19">
    <path clip-path="url(#p78230dac61)" d="M 258.362894 69280.247997 
L 260.739051 69280.247997 
L 260.739051 69280.247997 
L 258.362894 69280.247997 
z
" style="fill:#1f77b4;"/>
   </g>
   <g id="patch_20">
    <path clip-path="url(#p78230dac61)" d="M 270.243682 69280.247997 
L 272.619839 69280.247997 
L 272.619839 69280.247997 
L 270.243682 69280.247997 
z
" style="fill:#1f77b4;"/>
   </g>
   <g id="patch_21">
    <path clip-path="url(#p78230dac61)" d="M 282.124469 69280.247997 
L 284.500627 69280.247997 
L 284.500627 69280.247997 
L 282.124469 69280.247997 
z
" style="fill:#1f77b4;"/>
   </g>
   <g id="patch_22">
    <path clip-path="url(#p78230dac61)" d="M 294.005257 69280.247997 
L 296.381415 69280.247997 
L 296.381415 131.279762 
L 294.005257 131.279762 
z
" style="fill:#1f77b4;"/>
   </g>
   <g id="patch_23">
    <path clip-path="url(#p78230dac61)" d="M 305.886045 69280.247997 
L 308.262202 69280.247997 
L 308.262202 162.767053 
L 305.886045 162.767053 
z
" style="fill:#1f77b4;"/>
   </g>
   <g id="patch_24">
    <path clip-path="url(#p78230dac61)" d="M 317.766832 69280.247997 
L 320.14299 69280.247997 
L 320.14299 69280.247997 
L 317.766832 69280.247997 
z
" style="fill:#1f77b4;"/>
   </g>
   <g id="patch_25">
    <path clip-path="url(#p78230dac61)" d="M 329.64762 69280.247997 
L 332.023778 69280.247997 
L 332.023778 69280.247997 
L 329.64762 69280.247997 
z
" style="fill:#1f77b4;"/>
   </g>
   <g id="patch_26">
    <path clip-path="url(#p78230dac61)" d="M 341.528408 69280.247997 
L 343.904566 69280.247997 
L 343.904566 143.879418 
L 341.528408 143.879418 
z
" style="fill:#1f77b4;"/>
   </g>
   <g id="patch_27">
    <path clip-path="url(#p78230dac61)" d="M 353.409196 69280.247997 
L 355.785353 69280.247997 
L 355.785353 142.236849 
L 353.409196 142.236849 
z
" style="fill:#1f77b4;"/>
   </g>
   <g id="patch_28">
    <path clip-path="url(#p78230dac61)" d="M 365.289983 69280.247997 
L 367.666141 69280.247997 
L 367.666141 156.251255 
L 365.289983 156.251255 
z
" style="fill:#1f77b4;"/>
   </g>
   <g id="patch_29">
    <path clip-path="url(#p78230dac61)" d="M 377.170771 69280.247997 
L 379.546929 69280.247997 
L 379.546929 116.626384 
L 377.170771 116.626384 
z
" style="fill:#1f77b4;"/>
   </g>
   <g id="patch_30">
    <path clip-path="url(#p78230dac61)" d="M 389.051559 69280.247997 
L 391.427716 69280.247997 
L 391.427716 156.456696 
L 389.051559 156.456696 
z
" style="fill:#1f77b4;"/>
   </g>
   <g id="patch_31">
    <path clip-path="url(#p78230dac61)" d="M 400.932347 69280.247997 
L 403.308504 69280.247997 
L 403.308504 161.014028 
L 400.932347 161.014028 
z
" style="fill:#1f77b4;"/>
   </g>
   <g id="patch_32">
    <path clip-path="url(#p78230dac61)" d="M 412.813134 69280.247997 
L 415.189292 69280.247997 
L 415.189292 56.170618 
L 412.813134 56.170618 
z
" style="fill:#1f77b4;"/>
   </g>
   <g id="patch_33">
    <path clip-path="url(#p78230dac61)" d="M 424.693922 69280.247997 
L 427.07008 69280.247997 
L 427.07008 71.371638 
L 424.693922 71.371638 
z
" style="fill:#1f77b4;"/>
   </g>
   <g id="patch_34">
    <path clip-path="url(#p78230dac61)" d="M 70.646448 69280.247997 
L 73.022605 69280.247997 
L 73.022605 162.272925 
L 70.646448 162.272925 
z
" style="fill:#ff7f0e;"/>
   </g>
   <g id="patch_35">
    <path clip-path="url(#p78230dac61)" d="M 82.527235 69280.247997 
L 84.903393 69280.247997 
L 84.903393 162.272925 
L 82.527235 162.272925 
z
" style="fill:#ff7f0e;"/>
   </g>
   <g id="patch_36">
    <path clip-path="url(#p78230dac61)" d="M 94.408023 69280.247997 
L 96.784181 69280.247997 
L 96.784181 162.272925 
L 94.408023 162.272925 
z
" style="fill:#ff7f0e;"/>
   </g>
   <g id="patch_37">
    <path clip-path="url(#p78230dac61)" d="M 106.288811 69280.247997 
L 108.664968 69280.247997 
L 108.664968 162.272925 
L 106.288811 162.272925 
z
" style="fill:#ff7f0e;"/>
   </g>
   <g id="patch_38">
    <path clip-path="url(#p78230dac61)" d="M 118.169598 69280.247997 
L 120.545756 69280.247997 
L 120.545756 162.272925 
L 118.169598 162.272925 
z
" style="fill:#ff7f0e;"/>
   </g>
   <g id="patch_39">
    <path clip-path="url(#p78230dac61)" d="M 130.050386 69280.247997 
L 132.426544 69280.247997 
L 132.426544 162.272925 
L 130.050386 162.272925 
z
" style="fill:#ff7f0e;"/>
   </g>
   <g id="patch_40">
    <path clip-path="url(#p78230dac61)" d="M 141.931174 69280.247997 
L 144.307332 69280.247997 
L 144.307332 162.272925 
L 141.931174 162.272925 
z
" style="fill:#ff7f0e;"/>
   </g>
   <g id="patch_41">
    <path clip-path="url(#p78230dac61)" d="M 153.811962 69280.247997 
L 156.188119 69280.247997 
L 156.188119 162.272925 
L 153.811962 162.272925 
z
" style="fill:#ff7f0e;"/>
   </g>
   <g id="patch_42">
    <path clip-path="url(#p78230dac61)" d="M 165.692749 69280.247997 
L 168.068907 69280.247997 
L 168.068907 162.272925 
L 165.692749 162.272925 
z
" style="fill:#ff7f0e;"/>
   </g>
   <g id="patch_43">
    <path clip-path="url(#p78230dac61)" d="M 177.573537 69280.247997 
L 179.949695 69280.247997 
L 179.949695 162.272925 
L 177.573537 162.272925 
z
" style="fill:#ff7f0e;"/>
   </g>
   <g id="patch_44">
    <path clip-path="url(#p78230dac61)" d="M 189.454325 69280.247997 
L 191.830482 69280.247997 
L 191.830482 162.272925 
L 189.454325 162.272925 
z
" style="fill:#ff7f0e;"/>
   </g>
   <g id="patch_45">
    <path clip-path="url(#p78230dac61)" d="M 201.335113 69280.247997 
L 203.71127 69280.247997 
L 203.71127 162.272925 
L 201.335113 162.272925 
z
" style="fill:#ff7f0e;"/>
   </g>
   <g id="patch_46">
    <path clip-path="url(#p78230dac61)" d="M 213.2159 69280.247997 
L 215.592058 69280.247997 
L 215.592058 162.272925 
L 213.2159 162.272925 
z
" style="fill:#ff7f0e;"/>
   </g>
   <g id="patch_47">
    <path clip-path="url(#p78230dac61)" d="M 225.096688 69280.247997 
L 227.472846 69280.247997 
L 227.472846 162.272925 
L 225.096688 162.272925 
z
" style="fill:#ff7f0e;"/>
   </g>
   <g id="patch_48">
    <path clip-path="url(#p78230dac61)" d="M 236.977476 69280.247997 
L 239.353633 69280.247997 
L 239.353633 162.272925 
L 236.977476 162.272925 
z
" style="fill:#ff7f0e;"/>
   </g>
   <g id="patch_49">
    <path clip-path="url(#p78230dac61)" d="M 248.858264 69280.247997 
L 251.234421 69280.247997 
L 251.234421 162.272925 
L 248.858264 162.272925 
z
" style="fill:#ff7f0e;"/>
   </g>
   <g id="patch_50">
    <path clip-path="url(#p78230dac61)" d="M 260.739051 69280.247997 
L 263.115209 69280.247997 
L 263.115209 162.272925 
L 260.739051 162.272925 
z
" style="fill:#ff7f0e;"/>
   </g>
   <g id="patch_51">
    <path clip-path="url(#p78230dac61)" d="M 272.619839 69280.247997 
L 274.995997 69280.247997 
L 274.995997 162.272925 
L 272.619839 162.272925 
z
" style="fill:#ff7f0e;"/>
   </g>
   <g id="patch_52">
    <path clip-path="url(#p78230dac61)" d="M 284.500627 69280.247997 
L 286.876784 69280.247997 
L 286.876784 162.272925 
L 284.500627 162.272925 
z
" style="fill:#ff7f0e;"/>
   </g>
   <g id="patch_53">
    <path clip-path="url(#p78230dac61)" d="M 296.381415 69280.247997 
L 298.757572 69280.247997 
L 298.757572 162.272925 
L 296.381415 162.272925 
z
" style="fill:#ff7f0e;"/>
   </g>
   <g id="patch_54">
    <path clip-path="url(#p78230dac61)" d="M 308.262202 69280.247997 
L 310.63836 69280.247997 
L 310.63836 162.272925 
L 308.262202 162.272925 
z
" style="fill:#ff7f0e;"/>
   </g>
   <g id="patch_55">
    <path clip-path="url(#p78230dac61)" d="M 320.14299 69280.247997 
L 322.519148 69280.247997 
L 322.519148 162.272925 
L 320.14299 162.272925 
z
" style="fill:#ff7f0e;"/>
   </g>
   <g id="patch_56">
    <path clip-path="url(#p78230dac61)" d="M 332.023778 69280.247997 
L 334.399935 69280.247997 
L 334.399935 162.272925 
L 332.023778 162.272925 
z
" style="fill:#ff7f0e;"/>
   </g>
   <g id="patch_57">
    <path clip-path="url(#p78230dac61)" d="M 343.904566 69280.247997 
L 346.280723 69280.247997 
L 346.280723 162.272925 
L 343.904566 162.272925 
z
" style="fill:#ff7f0e;"/>
   </g>
   <g id="patch_58">
    <path clip-path="url(#p78230dac61)" d="M 355.785353 69280.247997 
L 358.161511 69280.247997 
L 358.161511 162.272925 
L 355.785353 162.272925 
z
" style="fill:#ff7f0e;"/>
   </g>
   <g id="patch_59">
    <path clip-path="url(#p78230dac61)" d="M 367.666141 69280.247997 
L 370.042299 69280.247997 
L 370.042299 162.272925 
L 367.666141 162.272925 
z
" style="fill:#ff7f0e;"/>
   </g>
   <g id="patch_60">
    <path clip-path="url(#p78230dac61)" d="M 379.546929 69280.247997 
L 381.923086 69280.247997 
L 381.923086 162.272925 
L 379.546929 162.272925 
z
" style="fill:#ff7f0e;"/>
   </g>
   <g id="patch_61">
    <path clip-path="url(#p78230dac61)" d="M 391.427716 69280.247997 
L 393.803874 69280.247997 
L 393.803874 162.272925 
L 391.427716 162.272925 
z
" style="fill:#ff7f0e;"/>
   </g>
   <g id="patch_62">
    <path clip-path="url(#p78230dac61)" d="M 403.308504 69280.247997 
L 405.684662 69280.247997 
L 405.684662 162.272925 
L 403.308504 162.272925 
z
" style="fill:#ff7f0e;"/>
   </g>
   <g id="patch_63">
    <path clip-path="url(#p78230dac61)" d="M 415.189292 69280.247997 
L 417.565449 69280.247997 
L 417.565449 162.272925 
L 415.189292 162.272925 
z
" style="fill:#ff7f0e;"/>
   </g>
   <g id="patch_64">
    <path clip-path="url(#p78230dac61)" d="M 427.07008 69280.247997 
L 429.446237 69280.247997 
L 429.446237 162.272925 
L 427.07008 162.272925 
z
" style="fill:#ff7f0e;"/>
   </g>
   <g id="patch_65">
    <path clip-path="url(#p78230dac61)" d="M 73.022605 69280.247997 
L 75.398763 69280.247997 
L 75.398763 162.631848 
L 73.022605 162.631848 
z
" style="fill:#2ca02c;"/>
   </g>
   <g id="patch_66">
    <path clip-path="url(#p78230dac61)" d="M 84.903393 69280.247997 
L 87.27955 69280.247997 
L 87.27955 21.077615 
L 84.903393 21.077615 
z
" style="fill:#2ca02c;"/>
   </g>
   <g id="patch_67">
    <path clip-path="url(#p78230dac61)" d="M 96.784181 69280.247997 
L 99.160338 69280.247997 
L 99.160338 162.111208 
L 96.784181 162.111208 
z
" style="fill:#2ca02c;"/>
   </g>
   <g id="patch_68">
    <path clip-path="url(#p78230dac61)" d="M 108.664968 69280.247997 
L 111.041126 69280.247997 
L 111.041126 176.409842 
L 108.664968 176.409842 
z
" style="fill:#2ca02c;"/>
   </g>
   <g id="patch_69">
    <path clip-path="url(#p78230dac61)" d="M 120.545756 69280.247997 
L 122.921914 69280.247997 
L 122.921914 140.873475 
L 120.545756 140.873475 
z
" style="fill:#2ca02c;"/>
   </g>
   <g id="patch_70">
    <path clip-path="url(#p78230dac61)" d="M 132.426544 69280.247997 
L 134.802701 69280.247997 
L 134.802701 136.308155 
L 132.426544 136.308155 
z
" style="fill:#2ca02c;"/>
   </g>
   <g id="patch_71">
    <path clip-path="url(#p78230dac61)" d="M 144.307332 69280.247997 
L 146.683489 69280.247997 
L 146.683489 151.282727 
L 144.307332 151.282727 
z
" style="fill:#2ca02c;"/>
   </g>
   <g id="patch_72">
    <path clip-path="url(#p78230dac61)" d="M 156.188119 69280.247997 
L 158.564277 69280.247997 
L 158.564277 175.563538 
L 156.188119 175.563538 
z
" style="fill:#2ca02c;"/>
   </g>
   <g id="patch_73">
    <path clip-path="url(#p78230dac61)" d="M 168.068907 69280.247997 
L 170.445065 69280.247997 
L 170.445065 161.89734 
L 168.068907 161.89734 
z
" style="fill:#2ca02c;"/>
   </g>
   <g id="patch_74">
    <path clip-path="url(#p78230dac61)" d="M 179.949695 69280.247997 
L 182.325852 69280.247997 
L 182.325852 141.657045 
L 179.949695 141.657045 
z
" style="fill:#2ca02c;"/>
   </g>
   <g id="patch_75">
    <path clip-path="url(#p78230dac61)" d="M 191.830482 69280.247997 
L 194.20664 69280.247997 
L 194.20664 113.961534 
L 191.830482 113.961534 
z
" style="fill:#2ca02c;"/>
   </g>
   <g id="patch_76">
    <path clip-path="url(#p78230dac61)" d="M 203.71127 69280.247997 
L 206.087428 69280.247997 
L 206.087428 104.183959 
L 203.71127 104.183959 
z
" style="fill:#2ca02c;"/>
   </g>
   <g id="patch_77">
    <path clip-path="url(#p78230dac61)" d="M 215.592058 69280.247997 
L 217.968215 69280.247997 
L 217.968215 148.40203 
L 215.592058 148.40203 
z
" style="fill:#2ca02c;"/>
   </g>
   <g id="patch_78">
    <path clip-path="url(#p78230dac61)" d="M 227.472846 69280.247997 
L 229.849003 69280.247997 
L 229.849003 143.233524 
L 227.472846 143.233524 
z
" style="fill:#2ca02c;"/>
   </g>
   <g id="patch_79">
    <path clip-path="url(#p78230dac61)" d="M 239.353633 69280.247997 
L 241.729791 69280.247997 
L 241.729791 68.429288 
L 239.353633 68.429288 
z
" style="fill:#2ca02c;"/>
   </g>
   <g id="patch_80">
    <path clip-path="url(#p78230dac61)" d="M 251.234421 69280.247997 
L 253.610579 69280.247997 
L 253.610579 158.395125 
L 251.234421 158.395125 
z
" style="fill:#2ca02c;"/>
   </g>
   <g id="patch_81">
    <path clip-path="url(#p78230dac61)" d="M 263.115209 69280.247997 
L 265.491366 69280.247997 
L 265.491366 133.863641 
L 263.115209 133.863641 
z
" style="fill:#2ca02c;"/>
   </g>
   <g id="patch_82">
    <path clip-path="url(#p78230dac61)" d="M 274.995997 69280.247997 
L 277.372154 69280.247997 
L 277.372154 19.068636 
L 274.995997 19.068636 
z
" style="fill:#2ca02c;"/>
   </g>
   <g id="patch_83">
    <path clip-path="url(#p78230dac61)" d="M 286.876784 69280.247997 
L 289.252942 69280.247997 
L 289.252942 167.364009 
L 286.876784 167.364009 
z
" style="fill:#2ca02c;"/>
   </g>
   <g id="patch_84">
    <path clip-path="url(#p78230dac61)" d="M 298.757572 69280.247997 
L 301.13373 69280.247997 
L 301.13373 133.249519 
L 298.757572 133.249519 
z
" style="fill:#2ca02c;"/>
   </g>
   <g id="patch_85">
    <path clip-path="url(#p78230dac61)" d="M 310.63836 69280.247997 
L 313.014517 69280.247997 
L 313.014517 159.262108 
L 310.63836 159.262108 
z
" style="fill:#2ca02c;"/>
   </g>
   <g id="patch_86">
    <path clip-path="url(#p78230dac61)" d="M 322.519148 69280.247997 
L 324.895305 69280.247997 
L 324.895305 137.869127 
L 322.519148 137.869127 
z
" style="fill:#2ca02c;"/>
   </g>
   <g id="patch_87">
    <path clip-path="url(#p78230dac61)" d="M 334.399935 69280.247997 
L 336.776093 69280.247997 
L 336.776093 184.441364 
L 334.399935 184.441364 
z
" style="fill:#2ca02c;"/>
   </g>
   <g id="patch_88">
    <path clip-path="url(#p78230dac61)" d="M 346.280723 69280.247997 
L 348.656881 69280.247997 
L 348.656881 147.270581 
L 346.280723 147.270581 
z
" style="fill:#2ca02c;"/>
   </g>
   <g id="patch_89">
    <path clip-path="url(#p78230dac61)" d="M 358.161511 69280.247997 
L 360.537668 69280.247997 
L 360.537668 142.140096 
L 358.161511 142.140096 
z
" style="fill:#2ca02c;"/>
   </g>
   <g id="patch_90">
    <path clip-path="url(#p78230dac61)" d="M 370.042299 69280.247997 
L 372.418456 69280.247997 
L 372.418456 89.891735 
L 370.042299 89.891735 
z
" style="fill:#2ca02c;"/>
   </g>
   <g id="patch_91">
    <path clip-path="url(#p78230dac61)" d="M 381.923086 69280.247997 
L 384.299244 69280.247997 
L 384.299244 111.373593 
L 381.923086 111.373593 
z
" style="fill:#2ca02c;"/>
   </g>
   <g id="patch_92">
    <path clip-path="url(#p78230dac61)" d="M 393.803874 69280.247997 
L 396.180032 69280.247997 
L 396.180032 132.011577 
L 393.803874 132.011577 
z
" style="fill:#2ca02c;"/>
   </g>
   <g id="patch_93">
    <path clip-path="url(#p78230dac61)" d="M 405.684662 69280.247997 
L 408.060819 69280.247997 
L 408.060819 159.327851 
L 405.684662 159.327851 
z
" style="fill:#2ca02c;"/>
   </g>
   <g id="patch_94">
    <path clip-path="url(#p78230dac61)" d="M 417.565449 69280.247997 
L 419.941607 69280.247997 
L 419.941607 35.571154 
L 417.565449 35.571154 
z
" style="fill:#2ca02c;"/>
   </g>
   <g id="patch_95">
    <path clip-path="url(#p78230dac61)" d="M 429.446237 69280.247997 
L 431.822395 69280.247997 
L 431.822395 42.940949 
L 429.446237 42.940949 
z
" style="fill:#2ca02c;"/>
   </g>
   <g id="matplotlib.axis_1">
    <g id="xtick_1">
     <g id="line2d_1">
      <defs>
       <path d="M 0 0 
L 0 3.5 
" id="m9b9f42c107" style="stroke:#000000;stroke-width:0.8;"/>
      </defs>
      <g>
       <use style="stroke:#000000;stroke-width:0.8;" x="71.834526" xlink:href="#m9b9f42c107" y="192.71"/>
      </g>
     </g>
     <g id="text_1">
      <!-- arc_distance -->
      <g transform="translate(74.454839 262.595937)rotate(-90)scale(0.1 -0.1)">
       <defs>
        <path d="M 34.28125 27.484375 
Q 23.390625 27.484375 19.1875 25 
Q 14.984375 22.515625 14.984375 16.5 
Q 14.984375 11.71875 18.140625 8.90625 
Q 21.296875 6.109375 26.703125 6.109375 
Q 34.1875 6.109375 38.703125 11.40625 
Q 43.21875 16.703125 43.21875 25.484375 
L 43.21875 27.484375 
z
M 52.203125 31.203125 
L 52.203125 0 
L 43.21875 0 
L 43.21875 8.296875 
Q 40.140625 3.328125 35.546875 0.953125 
Q 30.953125 -1.421875 24.3125 -1.421875 
Q 15.921875 -1.421875 10.953125 3.296875 
Q 6 8.015625 6 15.921875 
Q 6 25.140625 12.171875 29.828125 
Q 18.359375 34.515625 30.609375 34.515625 
L 43.21875 34.515625 
L 43.21875 35.40625 
Q 43.21875 41.609375 39.140625 45 
Q 35.0625 48.390625 27.6875 48.390625 
Q 23 48.390625 18.546875 47.265625 
Q 14.109375 46.140625 10.015625 43.890625 
L 10.015625 52.203125 
Q 14.9375 54.109375 19.578125 55.046875 
Q 24.21875 56 28.609375 56 
Q 40.484375 56 46.34375 49.84375 
Q 52.203125 43.703125 52.203125 31.203125 
z
" id="DejaVuSans-97"/>
        <path d="M 41.109375 46.296875 
Q 39.59375 47.171875 37.8125 47.578125 
Q 36.03125 48 33.890625 48 
Q 26.265625 48 22.1875 43.046875 
Q 18.109375 38.09375 18.109375 28.8125 
L 18.109375 0 
L 9.078125 0 
L 9.078125 54.6875 
L 18.109375 54.6875 
L 18.109375 46.1875 
Q 20.953125 51.171875 25.484375 53.578125 
Q 30.03125 56 36.53125 56 
Q 37.453125 56 38.578125 55.875 
Q 39.703125 55.765625 41.0625 55.515625 
z
" id="DejaVuSans-114"/>
        <path d="M 48.78125 52.59375 
L 48.78125 44.1875 
Q 44.96875 46.296875 41.140625 47.34375 
Q 37.3125 48.390625 33.40625 48.390625 
Q 24.65625 48.390625 19.8125 42.84375 
Q 14.984375 37.3125 14.984375 27.296875 
Q 14.984375 17.28125 19.8125 11.734375 
Q 24.65625 6.203125 33.40625 6.203125 
Q 37.3125 6.203125 41.140625 7.25 
Q 44.96875 8.296875 48.78125 10.40625 
L 48.78125 2.09375 
Q 45.015625 0.34375 40.984375 -0.53125 
Q 36.96875 -1.421875 32.421875 -1.421875 
Q 20.0625 -1.421875 12.78125 6.34375 
Q 5.515625 14.109375 5.515625 27.296875 
Q 5.515625 40.671875 12.859375 48.328125 
Q 20.21875 56 33.015625 56 
Q 37.15625 56 41.109375 55.140625 
Q 45.0625 54.296875 48.78125 52.59375 
z
" id="DejaVuSans-99"/>
        <path d="M 50.984375 -16.609375 
L 50.984375 -23.578125 
L -0.984375 -23.578125 
L -0.984375 -16.609375 
z
" id="DejaVuSans-95"/>
        <path d="M 45.40625 46.390625 
L 45.40625 75.984375 
L 54.390625 75.984375 
L 54.390625 0 
L 45.40625 0 
L 45.40625 8.203125 
Q 42.578125 3.328125 38.25 0.953125 
Q 33.9375 -1.421875 27.875 -1.421875 
Q 17.96875 -1.421875 11.734375 6.484375 
Q 5.515625 14.40625 5.515625 27.296875 
Q 5.515625 40.1875 11.734375 48.09375 
Q 17.96875 56 27.875 56 
Q 33.9375 56 38.25 53.625 
Q 42.578125 51.265625 45.40625 46.390625 
z
M 14.796875 27.296875 
Q 14.796875 17.390625 18.875 11.75 
Q 22.953125 6.109375 30.078125 6.109375 
Q 37.203125 6.109375 41.296875 11.75 
Q 45.40625 17.390625 45.40625 27.296875 
Q 45.40625 37.203125 41.296875 42.84375 
Q 37.203125 48.484375 30.078125 48.484375 
Q 22.953125 48.484375 18.875 42.84375 
Q 14.796875 37.203125 14.796875 27.296875 
z
" id="DejaVuSans-100"/>
        <path d="M 9.421875 54.6875 
L 18.40625 54.6875 
L 18.40625 0 
L 9.421875 0 
z
M 9.421875 75.984375 
L 18.40625 75.984375 
L 18.40625 64.59375 
L 9.421875 64.59375 
z
" id="DejaVuSans-105"/>
        <path d="M 44.28125 53.078125 
L 44.28125 44.578125 
Q 40.484375 46.53125 36.375 47.5 
Q 32.28125 48.484375 27.875 48.484375 
Q 21.1875 48.484375 17.84375 46.4375 
Q 14.5 44.390625 14.5 40.28125 
Q 14.5 37.15625 16.890625 35.375 
Q 19.28125 33.59375 26.515625 31.984375 
L 29.59375 31.296875 
Q 39.15625 29.25 43.1875 25.515625 
Q 47.21875 21.78125 47.21875 15.09375 
Q 47.21875 7.46875 41.1875 3.015625 
Q 35.15625 -1.421875 24.609375 -1.421875 
Q 20.21875 -1.421875 15.453125 -0.5625 
Q 10.6875 0.296875 5.421875 2 
L 5.421875 11.28125 
Q 10.40625 8.6875 15.234375 7.390625 
Q 20.0625 6.109375 24.8125 6.109375 
Q 31.15625 6.109375 34.5625 8.28125 
Q 37.984375 10.453125 37.984375 14.40625 
Q 37.984375 18.0625 35.515625 20.015625 
Q 33.0625 21.96875 24.703125 23.78125 
L 21.578125 24.515625 
Q 13.234375 26.265625 9.515625 29.90625 
Q 5.8125 33.546875 5.8125 39.890625 
Q 5.8125 47.609375 11.28125 51.796875 
Q 16.75 56 26.8125 56 
Q 31.78125 56 36.171875 55.265625 
Q 40.578125 54.546875 44.28125 53.078125 
z
" id="DejaVuSans-115"/>
        <path d="M 18.3125 70.21875 
L 18.3125 54.6875 
L 36.8125 54.6875 
L 36.8125 47.703125 
L 18.3125 47.703125 
L 18.3125 18.015625 
Q 18.3125 11.328125 20.140625 9.421875 
Q 21.96875 7.515625 27.59375 7.515625 
L 36.8125 7.515625 
L 36.8125 0 
L 27.59375 0 
Q 17.1875 0 13.234375 3.875 
Q 9.28125 7.765625 9.28125 18.015625 
L 9.28125 47.703125 
L 2.6875 47.703125 
L 2.6875 54.6875 
L 9.28125 54.6875 
L 9.28125 70.21875 
z
" id="DejaVuSans-116"/>
        <path d="M 54.890625 33.015625 
L 54.890625 0 
L 45.90625 0 
L 45.90625 32.71875 
Q 45.90625 40.484375 42.875 44.328125 
Q 39.84375 48.1875 33.796875 48.1875 
Q 26.515625 48.1875 22.3125 43.546875 
Q 18.109375 38.921875 18.109375 30.90625 
L 18.109375 0 
L 9.078125 0 
L 9.078125 54.6875 
L 18.109375 54.6875 
L 18.109375 46.1875 
Q 21.34375 51.125 25.703125 53.5625 
Q 30.078125 56 35.796875 56 
Q 45.21875 56 50.046875 50.171875 
Q 54.890625 44.34375 54.890625 33.015625 
z
" id="DejaVuSans-110"/>
        <path d="M 56.203125 29.59375 
L 56.203125 25.203125 
L 14.890625 25.203125 
Q 15.484375 15.921875 20.484375 11.0625 
Q 25.484375 6.203125 34.421875 6.203125 
Q 39.59375 6.203125 44.453125 7.46875 
Q 49.3125 8.734375 54.109375 11.28125 
L 54.109375 2.78125 
Q 49.265625 0.734375 44.1875 -0.34375 
Q 39.109375 -1.421875 33.890625 -1.421875 
Q 20.796875 -1.421875 13.15625 6.1875 
Q 5.515625 13.8125 5.515625 26.8125 
Q 5.515625 40.234375 12.765625 48.109375 
Q 20.015625 56 32.328125 56 
Q 43.359375 56 49.78125 48.890625 
Q 56.203125 41.796875 56.203125 29.59375 
z
M 47.21875 32.234375 
Q 47.125 39.59375 43.09375 43.984375 
Q 39.0625 48.390625 32.421875 48.390625 
Q 24.90625 48.390625 20.390625 44.140625 
Q 15.875 39.890625 15.1875 32.171875 
z
" id="DejaVuSans-101"/>
       </defs>
       <use xlink:href="#DejaVuSans-97"/>
       <use x="61.279297" xlink:href="#DejaVuSans-114"/>
       <use x="100.142578" xlink:href="#DejaVuSans-99"/>
       <use x="155.123047" xlink:href="#DejaVuSans-95"/>
       <use x="205.123047" xlink:href="#DejaVuSans-100"/>
       <use x="268.599609" xlink:href="#DejaVuSans-105"/>
       <use x="296.382812" xlink:href="#DejaVuSans-115"/>
       <use x="348.482422" xlink:href="#DejaVuSans-116"/>
       <use x="387.691406" xlink:href="#DejaVuSans-97"/>
       <use x="448.970703" xlink:href="#DejaVuSans-110"/>
       <use x="512.349609" xlink:href="#DejaVuSans-99"/>
       <use x="567.330078" xlink:href="#DejaVuSans-101"/>
      </g>
     </g>
    </g>
    <g id="xtick_2">
     <g id="line2d_2">
      <g>
       <use style="stroke:#000000;stroke-width:0.8;" x="83.715314" xlink:href="#m9b9f42c107" y="192.71"/>
      </g>
     </g>
     <g id="text_2">
      <!-- check_mask -->
      <g transform="translate(86.335627 260.856875)rotate(-90)scale(0.1 -0.1)">
       <defs>
        <path d="M 54.890625 33.015625 
L 54.890625 0 
L 45.90625 0 
L 45.90625 32.71875 
Q 45.90625 40.484375 42.875 44.328125 
Q 39.84375 48.1875 33.796875 48.1875 
Q 26.515625 48.1875 22.3125 43.546875 
Q 18.109375 38.921875 18.109375 30.90625 
L 18.109375 0 
L 9.078125 0 
L 9.078125 75.984375 
L 18.109375 75.984375 
L 18.109375 46.1875 
Q 21.34375 51.125 25.703125 53.5625 
Q 30.078125 56 35.796875 56 
Q 45.21875 56 50.046875 50.171875 
Q 54.890625 44.34375 54.890625 33.015625 
z
" id="DejaVuSans-104"/>
        <path d="M 9.078125 75.984375 
L 18.109375 75.984375 
L 18.109375 31.109375 
L 44.921875 54.6875 
L 56.390625 54.6875 
L 27.390625 29.109375 
L 57.625 0 
L 45.90625 0 
L 18.109375 26.703125 
L 18.109375 0 
L 9.078125 0 
z
" id="DejaVuSans-107"/>
        <path d="M 52 44.1875 
Q 55.375 50.25 60.0625 53.125 
Q 64.75 56 71.09375 56 
Q 79.640625 56 84.28125 50.015625 
Q 88.921875 44.046875 88.921875 33.015625 
L 88.921875 0 
L 79.890625 0 
L 79.890625 32.71875 
Q 79.890625 40.578125 77.09375 44.375 
Q 74.3125 48.1875 68.609375 48.1875 
Q 61.625 48.1875 57.5625 43.546875 
Q 53.515625 38.921875 53.515625 30.90625 
L 53.515625 0 
L 44.484375 0 
L 44.484375 32.71875 
Q 44.484375 40.625 41.703125 44.40625 
Q 38.921875 48.1875 33.109375 48.1875 
Q 26.21875 48.1875 22.15625 43.53125 
Q 18.109375 38.875 18.109375 30.90625 
L 18.109375 0 
L 9.078125 0 
L 9.078125 54.6875 
L 18.109375 54.6875 
L 18.109375 46.1875 
Q 21.1875 51.21875 25.484375 53.609375 
Q 29.78125 56 35.6875 56 
Q 41.65625 56 45.828125 52.96875 
Q 50 49.953125 52 44.1875 
z
" id="DejaVuSans-109"/>
       </defs>
       <use xlink:href="#DejaVuSans-99"/>
       <use x="54.980469" xlink:href="#DejaVuSans-104"/>
       <use x="118.359375" xlink:href="#DejaVuSans-101"/>
       <use x="179.882812" xlink:href="#DejaVuSans-99"/>
       <use x="234.863281" xlink:href="#DejaVuSans-107"/>
       <use x="292.773438" xlink:href="#DejaVuSans-95"/>
       <use x="342.773438" xlink:href="#DejaVuSans-109"/>
       <use x="440.185547" xlink:href="#DejaVuSans-97"/>
       <use x="501.464844" xlink:href="#DejaVuSans-115"/>
       <use x="553.564453" xlink:href="#DejaVuSans-107"/>
      </g>
     </g>
    </g>
    <g id="xtick_3">
     <g id="line2d_3">
      <g>
       <use style="stroke:#000000;stroke-width:0.8;" x="95.596102" xlink:href="#m9b9f42c107" y="192.71"/>
      </g>
     </g>
     <g id="text_3">
      <!-- create_grid -->
      <g transform="translate(98.216414 256.035)rotate(-90)scale(0.1 -0.1)">
       <defs>
        <path d="M 45.40625 27.984375 
Q 45.40625 37.75 41.375 43.109375 
Q 37.359375 48.484375 30.078125 48.484375 
Q 22.859375 48.484375 18.828125 43.109375 
Q 14.796875 37.75 14.796875 27.984375 
Q 14.796875 18.265625 18.828125 12.890625 
Q 22.859375 7.515625 30.078125 7.515625 
Q 37.359375 7.515625 41.375 12.890625 
Q 45.40625 18.265625 45.40625 27.984375 
z
M 54.390625 6.78125 
Q 54.390625 -7.171875 48.1875 -13.984375 
Q 42 -20.796875 29.203125 -20.796875 
Q 24.46875 -20.796875 20.265625 -20.09375 
Q 16.0625 -19.390625 12.109375 -17.921875 
L 12.109375 -9.1875 
Q 16.0625 -11.328125 19.921875 -12.34375 
Q 23.78125 -13.375 27.78125 -13.375 
Q 36.625 -13.375 41.015625 -8.765625 
Q 45.40625 -4.15625 45.40625 5.171875 
L 45.40625 9.625 
Q 42.625 4.78125 38.28125 2.390625 
Q 33.9375 0 27.875 0 
Q 17.828125 0 11.671875 7.65625 
Q 5.515625 15.328125 5.515625 27.984375 
Q 5.515625 40.671875 11.671875 48.328125 
Q 17.828125 56 27.875 56 
Q 33.9375 56 38.28125 53.609375 
Q 42.625 51.21875 45.40625 46.390625 
L 45.40625 54.6875 
L 54.390625 54.6875 
z
" id="DejaVuSans-103"/>
       </defs>
       <use xlink:href="#DejaVuSans-99"/>
       <use x="54.980469" xlink:href="#DejaVuSans-114"/>
       <use x="93.84375" xlink:href="#DejaVuSans-101"/>
       <use x="155.367188" xlink:href="#DejaVuSans-97"/>
       <use x="216.646484" xlink:href="#DejaVuSans-116"/>
       <use x="255.855469" xlink:href="#DejaVuSans-101"/>
       <use x="317.378906" xlink:href="#DejaVuSans-95"/>
       <use x="367.378906" xlink:href="#DejaVuSans-103"/>
       <use x="430.855469" xlink:href="#DejaVuSans-114"/>
       <use x="471.96875" xlink:href="#DejaVuSans-105"/>
       <use x="499.751953" xlink:href="#DejaVuSans-100"/>
      </g>
     </g>
    </g>
    <g id="xtick_4">
     <g id="line2d_4">
      <g>
       <use style="stroke:#000000;stroke-width:0.8;" x="107.47689" xlink:href="#m9b9f42c107" y="192.71"/>
      </g>
     </g>
     <g id="text_4">
      <!-- cronbach -->
      <g transform="translate(110.236265 245.863125)rotate(-90)scale(0.1 -0.1)">
       <defs>
        <path d="M 30.609375 48.390625 
Q 23.390625 48.390625 19.1875 42.75 
Q 14.984375 37.109375 14.984375 27.296875 
Q 14.984375 17.484375 19.15625 11.84375 
Q 23.34375 6.203125 30.609375 6.203125 
Q 37.796875 6.203125 41.984375 11.859375 
Q 46.1875 17.53125 46.1875 27.296875 
Q 46.1875 37.015625 41.984375 42.703125 
Q 37.796875 48.390625 30.609375 48.390625 
z
M 30.609375 56 
Q 42.328125 56 49.015625 48.375 
Q 55.71875 40.765625 55.71875 27.296875 
Q 55.71875 13.875 49.015625 6.21875 
Q 42.328125 -1.421875 30.609375 -1.421875 
Q 18.84375 -1.421875 12.171875 6.21875 
Q 5.515625 13.875 5.515625 27.296875 
Q 5.515625 40.765625 12.171875 48.375 
Q 18.84375 56 30.609375 56 
z
" id="DejaVuSans-111"/>
        <path d="M 48.6875 27.296875 
Q 48.6875 37.203125 44.609375 42.84375 
Q 40.53125 48.484375 33.40625 48.484375 
Q 26.265625 48.484375 22.1875 42.84375 
Q 18.109375 37.203125 18.109375 27.296875 
Q 18.109375 17.390625 22.1875 11.75 
Q 26.265625 6.109375 33.40625 6.109375 
Q 40.53125 6.109375 44.609375 11.75 
Q 48.6875 17.390625 48.6875 27.296875 
z
M 18.109375 46.390625 
Q 20.953125 51.265625 25.265625 53.625 
Q 29.59375 56 35.59375 56 
Q 45.5625 56 51.78125 48.09375 
Q 58.015625 40.1875 58.015625 27.296875 
Q 58.015625 14.40625 51.78125 6.484375 
Q 45.5625 -1.421875 35.59375 -1.421875 
Q 29.59375 -1.421875 25.265625 0.953125 
Q 20.953125 3.328125 18.109375 8.203125 
L 18.109375 0 
L 9.078125 0 
L 9.078125 75.984375 
L 18.109375 75.984375 
z
" id="DejaVuSans-98"/>
       </defs>
       <use xlink:href="#DejaVuSans-99"/>
       <use x="54.980469" xlink:href="#DejaVuSans-114"/>
       <use x="93.84375" xlink:href="#DejaVuSans-111"/>
       <use x="155.025391" xlink:href="#DejaVuSans-110"/>
       <use x="218.404297" xlink:href="#DejaVuSans-98"/>
       <use x="281.880859" xlink:href="#DejaVuSans-97"/>
       <use x="343.160156" xlink:href="#DejaVuSans-99"/>
       <use x="398.140625" xlink:href="#DejaVuSans-104"/>
      </g>
     </g>
    </g>
    <g id="xtick_5">
     <g id="line2d_5">
      <g>
       <use style="stroke:#000000;stroke-width:0.8;" x="119.357677" xlink:href="#m9b9f42c107" y="192.71"/>
      </g>
     </g>
     <g id="text_5">
      <!-- diffusion -->
      <g transform="translate(122.117052 242.658438)rotate(-90)scale(0.1 -0.1)">
       <defs>
        <path d="M 37.109375 75.984375 
L 37.109375 68.5 
L 28.515625 68.5 
Q 23.6875 68.5 21.796875 66.546875 
Q 19.921875 64.59375 19.921875 59.515625 
L 19.921875 54.6875 
L 34.71875 54.6875 
L 34.71875 47.703125 
L 19.921875 47.703125 
L 19.921875 0 
L 10.890625 0 
L 10.890625 47.703125 
L 2.296875 47.703125 
L 2.296875 54.6875 
L 10.890625 54.6875 
L 10.890625 58.5 
Q 10.890625 67.625 15.140625 71.796875 
Q 19.390625 75.984375 28.609375 75.984375 
z
" id="DejaVuSans-102"/>
        <path d="M 8.5 21.578125 
L 8.5 54.6875 
L 17.484375 54.6875 
L 17.484375 21.921875 
Q 17.484375 14.15625 20.5 10.265625 
Q 23.53125 6.390625 29.59375 6.390625 
Q 36.859375 6.390625 41.078125 11.03125 
Q 45.3125 15.671875 45.3125 23.6875 
L 45.3125 54.6875 
L 54.296875 54.6875 
L 54.296875 0 
L 45.3125 0 
L 45.3125 8.40625 
Q 42.046875 3.421875 37.71875 1 
Q 33.40625 -1.421875 27.6875 -1.421875 
Q 18.265625 -1.421875 13.375 4.4375 
Q 8.5 10.296875 8.5 21.578125 
z
M 31.109375 56 
z
" id="DejaVuSans-117"/>
       </defs>
       <use xlink:href="#DejaVuSans-100"/>
       <use x="63.476562" xlink:href="#DejaVuSans-105"/>
       <use x="91.259766" xlink:href="#DejaVuSans-102"/>
       <use x="126.464844" xlink:href="#DejaVuSans-102"/>
       <use x="161.669922" xlink:href="#DejaVuSans-117"/>
       <use x="225.048828" xlink:href="#DejaVuSans-115"/>
       <use x="277.148438" xlink:href="#DejaVuSans-105"/>
       <use x="304.931641" xlink:href="#DejaVuSans-111"/>
       <use x="366.113281" xlink:href="#DejaVuSans-110"/>
      </g>
     </g>
    </g>
    <g id="xtick_6">
     <g id="line2d_6">
      <g>
       <use style="stroke:#000000;stroke-width:0.8;" x="131.238465" xlink:href="#m9b9f42c107" y="192.71"/>
      </g>
     </g>
     <g id="text_6">
      <!-- euclidean_distance_square -->
      <g transform="translate(133.858778 334.658437)rotate(-90)scale(0.1 -0.1)">
       <defs>
        <path d="M 9.421875 75.984375 
L 18.40625 75.984375 
L 18.40625 0 
L 9.421875 0 
z
" id="DejaVuSans-108"/>
        <path d="M 14.796875 27.296875 
Q 14.796875 17.390625 18.875 11.75 
Q 22.953125 6.109375 30.078125 6.109375 
Q 37.203125 6.109375 41.296875 11.75 
Q 45.40625 17.390625 45.40625 27.296875 
Q 45.40625 37.203125 41.296875 42.84375 
Q 37.203125 48.484375 30.078125 48.484375 
Q 22.953125 48.484375 18.875 42.84375 
Q 14.796875 37.203125 14.796875 27.296875 
z
M 45.40625 8.203125 
Q 42.578125 3.328125 38.25 0.953125 
Q 33.9375 -1.421875 27.875 -1.421875 
Q 17.96875 -1.421875 11.734375 6.484375 
Q 5.515625 14.40625 5.515625 27.296875 
Q 5.515625 40.1875 11.734375 48.09375 
Q 17.96875 56 27.875 56 
Q 33.9375 56 38.25 53.625 
Q 42.578125 51.265625 45.40625 46.390625 
L 45.40625 54.6875 
L 54.390625 54.6875 
L 54.390625 -20.796875 
L 45.40625 -20.796875 
z
" id="DejaVuSans-113"/>
       </defs>
       <use xlink:href="#DejaVuSans-101"/>
       <use x="61.523438" xlink:href="#DejaVuSans-117"/>
       <use x="124.902344" xlink:href="#DejaVuSans-99"/>
       <use x="179.882812" xlink:href="#DejaVuSans-108"/>
       <use x="207.666016" xlink:href="#DejaVuSans-105"/>
       <use x="235.449219" xlink:href="#DejaVuSans-100"/>
       <use x="298.925781" xlink:href="#DejaVuSans-101"/>
       <use x="360.449219" xlink:href="#DejaVuSans-97"/>
       <use x="421.728516" xlink:href="#DejaVuSans-110"/>
       <use x="485.107422" xlink:href="#DejaVuSans-95"/>
       <use x="535.107422" xlink:href="#DejaVuSans-100"/>
       <use x="598.583984" xlink:href="#DejaVuSans-105"/>
       <use x="626.367188" xlink:href="#DejaVuSans-115"/>
       <use x="678.466797" xlink:href="#DejaVuSans-116"/>
       <use x="717.675781" xlink:href="#DejaVuSans-97"/>
       <use x="778.955078" xlink:href="#DejaVuSans-110"/>
       <use x="842.333984" xlink:href="#DejaVuSans-99"/>
       <use x="897.314453" xlink:href="#DejaVuSans-101"/>
       <use x="958.837891" xlink:href="#DejaVuSans-95"/>
       <use x="1008.837891" xlink:href="#DejaVuSans-115"/>
       <use x="1060.9375" xlink:href="#DejaVuSans-113"/>
       <use x="1124.414062" xlink:href="#DejaVuSans-117"/>
       <use x="1187.792969" xlink:href="#DejaVuSans-97"/>
       <use x="1249.072266" xlink:href="#DejaVuSans-114"/>
       <use x="1287.935547" xlink:href="#DejaVuSans-101"/>
      </g>
     </g>
    </g>
    <g id="xtick_7">
     <g id="line2d_7">
      <g>
       <use style="stroke:#000000;stroke-width:0.8;" x="143.119253" xlink:href="#m9b9f42c107" y="192.71"/>
      </g>
     </g>
     <g id="text_7">
      <!-- evolve -->
      <g transform="translate(145.878628 232.750625)rotate(-90)scale(0.1 -0.1)">
       <defs>
        <path d="M 2.984375 54.6875 
L 12.5 54.6875 
L 29.59375 8.796875 
L 46.6875 54.6875 
L 56.203125 54.6875 
L 35.6875 0 
L 23.484375 0 
z
" id="DejaVuSans-118"/>
       </defs>
       <use xlink:href="#DejaVuSans-101"/>
       <use x="61.523438" xlink:href="#DejaVuSans-118"/>
       <use x="120.703125" xlink:href="#DejaVuSans-111"/>
       <use x="181.884766" xlink:href="#DejaVuSans-108"/>
       <use x="209.667969" xlink:href="#DejaVuSans-118"/>
       <use x="268.847656" xlink:href="#DejaVuSans-101"/>
      </g>
     </g>
    </g>
    <g id="xtick_8">
     <g id="line2d_8">
      <g>
       <use style="stroke:#000000;stroke-width:0.8;" x="155.00004" xlink:href="#m9b9f42c107" y="192.71"/>
      </g>
     </g>
     <g id="text_8">
      <!-- grayscott -->
      <g transform="translate(157.759415 246.883438)rotate(-90)scale(0.1 -0.1)">
       <defs>
        <path d="M 32.171875 -5.078125 
Q 28.375 -14.84375 24.75 -17.8125 
Q 21.140625 -20.796875 15.09375 -20.796875 
L 7.90625 -20.796875 
L 7.90625 -13.28125 
L 13.1875 -13.28125 
Q 16.890625 -13.28125 18.9375 -11.515625 
Q 21 -9.765625 23.484375 -3.21875 
L 25.09375 0.875 
L 2.984375 54.6875 
L 12.5 54.6875 
L 29.59375 11.921875 
L 46.6875 54.6875 
L 56.203125 54.6875 
z
" id="DejaVuSans-121"/>
       </defs>
       <use xlink:href="#DejaVuSans-103"/>
       <use x="63.476562" xlink:href="#DejaVuSans-114"/>
       <use x="104.589844" xlink:href="#DejaVuSans-97"/>
       <use x="165.869141" xlink:href="#DejaVuSans-121"/>
       <use x="225.048828" xlink:href="#DejaVuSans-115"/>
       <use x="277.148438" xlink:href="#DejaVuSans-99"/>
       <use x="332.128906" xlink:href="#DejaVuSans-111"/>
       <use x="393.310547" xlink:href="#DejaVuSans-116"/>
       <use x="432.519531" xlink:href="#DejaVuSans-116"/>
      </g>
     </g>
    </g>
    <g id="xtick_9">
     <g id="line2d_9">
      <g>
       <use style="stroke:#000000;stroke-width:0.8;" x="166.880828" xlink:href="#m9b9f42c107" y="192.71"/>
      </g>
     </g>
     <g id="text_9">
      <!-- grouping -->
      <g transform="translate(169.640203 244.213125)rotate(-90)scale(0.1 -0.1)">
       <defs>
        <path d="M 18.109375 8.203125 
L 18.109375 -20.796875 
L 9.078125 -20.796875 
L 9.078125 54.6875 
L 18.109375 54.6875 
L 18.109375 46.390625 
Q 20.953125 51.265625 25.265625 53.625 
Q 29.59375 56 35.59375 56 
Q 45.5625 56 51.78125 48.09375 
Q 58.015625 40.1875 58.015625 27.296875 
Q 58.015625 14.40625 51.78125 6.484375 
Q 45.5625 -1.421875 35.59375 -1.421875 
Q 29.59375 -1.421875 25.265625 0.953125 
Q 20.953125 3.328125 18.109375 8.203125 
z
M 48.6875 27.296875 
Q 48.6875 37.203125 44.609375 42.84375 
Q 40.53125 48.484375 33.40625 48.484375 
Q 26.265625 48.484375 22.1875 42.84375 
Q 18.109375 37.203125 18.109375 27.296875 
Q 18.109375 17.390625 22.1875 11.75 
Q 26.265625 6.109375 33.40625 6.109375 
Q 40.53125 6.109375 44.609375 11.75 
Q 48.6875 17.390625 48.6875 27.296875 
z
" id="DejaVuSans-112"/>
       </defs>
       <use xlink:href="#DejaVuSans-103"/>
       <use x="63.476562" xlink:href="#DejaVuSans-114"/>
       <use x="102.339844" xlink:href="#DejaVuSans-111"/>
       <use x="163.521484" xlink:href="#DejaVuSans-117"/>
       <use x="226.900391" xlink:href="#DejaVuSans-112"/>
       <use x="290.376953" xlink:href="#DejaVuSans-105"/>
       <use x="318.160156" xlink:href="#DejaVuSans-110"/>
       <use x="381.539062" xlink:href="#DejaVuSans-103"/>
      </g>
     </g>
    </g>
    <g id="xtick_10">
     <g id="line2d_10">
      <g>
       <use style="stroke:#000000;stroke-width:0.8;" x="178.761616" xlink:href="#m9b9f42c107" y="192.71"/>
      </g>
     </g>
     <g id="text_10">
      <!-- harris -->
      <g transform="translate(181.520991 228.21)rotate(-90)scale(0.1 -0.1)">
       <use xlink:href="#DejaVuSans-104"/>
       <use x="63.378906" xlink:href="#DejaVuSans-97"/>
       <use x="124.658203" xlink:href="#DejaVuSans-114"/>
       <use x="164.021484" xlink:href="#DejaVuSans-114"/>
       <use x="205.134766" xlink:href="#DejaVuSans-105"/>
       <use x="232.917969" xlink:href="#DejaVuSans-115"/>
      </g>
     </g>
    </g>
    <g id="xtick_11">
     <g id="line2d_11">
      <g>
       <use style="stroke:#000000;stroke-width:0.8;" x="190.642404" xlink:href="#m9b9f42c107" y="192.71"/>
      </g>
     </g>
     <g id="text_11">
      <!-- hasting -->
      <g transform="translate(193.401779 236.769375)rotate(-90)scale(0.1 -0.1)">
       <use xlink:href="#DejaVuSans-104"/>
       <use x="63.378906" xlink:href="#DejaVuSans-97"/>
       <use x="124.658203" xlink:href="#DejaVuSans-115"/>
       <use x="176.757812" xlink:href="#DejaVuSans-116"/>
       <use x="215.966797" xlink:href="#DejaVuSans-105"/>
       <use x="243.75" xlink:href="#DejaVuSans-110"/>
       <use x="307.128906" xlink:href="#DejaVuSans-103"/>
      </g>
     </g>
    </g>
    <g id="xtick_12">
     <g id="line2d_12">
      <g>
       <use style="stroke:#000000;stroke-width:0.8;" x="202.523191" xlink:href="#m9b9f42c107" y="192.71"/>
      </g>
     </g>
     <g id="text_12">
      <!-- l1norm -->
      <g transform="translate(205.282566 234.983438)rotate(-90)scale(0.1 -0.1)">
       <defs>
        <path d="M 12.40625 8.296875 
L 28.515625 8.296875 
L 28.515625 63.921875 
L 10.984375 60.40625 
L 10.984375 69.390625 
L 28.421875 72.90625 
L 38.28125 72.90625 
L 38.28125 8.296875 
L 54.390625 8.296875 
L 54.390625 0 
L 12.40625 0 
z
" id="DejaVuSans-49"/>
       </defs>
       <use xlink:href="#DejaVuSans-108"/>
       <use x="27.783203" xlink:href="#DejaVuSans-49"/>
       <use x="91.40625" xlink:href="#DejaVuSans-110"/>
       <use x="154.785156" xlink:href="#DejaVuSans-111"/>
       <use x="215.966797" xlink:href="#DejaVuSans-114"/>
       <use x="255.330078" xlink:href="#DejaVuSans-109"/>
      </g>
     </g>
    </g>
    <g id="xtick_13">
     <g id="line2d_13">
      <g>
       <use style="stroke:#000000;stroke-width:0.8;" x="214.403979" xlink:href="#m9b9f42c107" y="192.71"/>
      </g>
     </g>
     <g id="text_13">
      <!-- l2norm -->
      <g transform="translate(217.163354 234.983438)rotate(-90)scale(0.1 -0.1)">
       <defs>
        <path d="M 19.1875 8.296875 
L 53.609375 8.296875 
L 53.609375 0 
L 7.328125 0 
L 7.328125 8.296875 
Q 12.9375 14.109375 22.625 23.890625 
Q 32.328125 33.6875 34.8125 36.53125 
Q 39.546875 41.84375 41.421875 45.53125 
Q 43.3125 49.21875 43.3125 52.78125 
Q 43.3125 58.59375 39.234375 62.25 
Q 35.15625 65.921875 28.609375 65.921875 
Q 23.96875 65.921875 18.8125 64.3125 
Q 13.671875 62.703125 7.8125 59.421875 
L 7.8125 69.390625 
Q 13.765625 71.78125 18.9375 73 
Q 24.125 74.21875 28.421875 74.21875 
Q 39.75 74.21875 46.484375 68.546875 
Q 53.21875 62.890625 53.21875 53.421875 
Q 53.21875 48.921875 51.53125 44.890625 
Q 49.859375 40.875 45.40625 35.40625 
Q 44.1875 33.984375 37.640625 27.21875 
Q 31.109375 20.453125 19.1875 8.296875 
z
" id="DejaVuSans-50"/>
       </defs>
       <use xlink:href="#DejaVuSans-108"/>
       <use x="27.783203" xlink:href="#DejaVuSans-50"/>
       <use x="91.40625" xlink:href="#DejaVuSans-110"/>
       <use x="154.785156" xlink:href="#DejaVuSans-111"/>
       <use x="215.966797" xlink:href="#DejaVuSans-114"/>
       <use x="255.330078" xlink:href="#DejaVuSans-109"/>
      </g>
     </g>
    </g>
    <g id="xtick_14">
     <g id="line2d_14">
      <g>
       <use style="stroke:#000000;stroke-width:0.8;" x="226.284767" xlink:href="#m9b9f42c107" y="192.71"/>
      </g>
     </g>
     <g id="text_14">
      <!-- laplacien -->
      <g transform="translate(229.044142 244.638125)rotate(-90)scale(0.1 -0.1)">
       <use xlink:href="#DejaVuSans-108"/>
       <use x="27.783203" xlink:href="#DejaVuSans-97"/>
       <use x="89.0625" xlink:href="#DejaVuSans-112"/>
       <use x="152.539062" xlink:href="#DejaVuSans-108"/>
       <use x="180.322266" xlink:href="#DejaVuSans-97"/>
       <use x="241.601562" xlink:href="#DejaVuSans-99"/>
       <use x="296.582031" xlink:href="#DejaVuSans-105"/>
       <use x="324.365234" xlink:href="#DejaVuSans-101"/>
       <use x="385.888672" xlink:href="#DejaVuSans-110"/>
      </g>
     </g>
    </g>
    <g id="xtick_15">
     <g id="line2d_15">
      <g>
       <use style="stroke:#000000;stroke-width:0.8;" x="238.165555" xlink:href="#m9b9f42c107" y="192.71"/>
      </g>
     </g>
     <g id="text_15">
      <!-- local_maxima -->
      <g transform="translate(240.785867 268.445938)rotate(-90)scale(0.1 -0.1)">
       <defs>
        <path d="M 54.890625 54.6875 
L 35.109375 28.078125 
L 55.90625 0 
L 45.3125 0 
L 29.390625 21.484375 
L 13.484375 0 
L 2.875 0 
L 24.125 28.609375 
L 4.6875 54.6875 
L 15.28125 54.6875 
L 29.78125 35.203125 
L 44.28125 54.6875 
z
" id="DejaVuSans-120"/>
       </defs>
       <use xlink:href="#DejaVuSans-108"/>
       <use x="27.783203" xlink:href="#DejaVuSans-111"/>
       <use x="88.964844" xlink:href="#DejaVuSans-99"/>
       <use x="143.945312" xlink:href="#DejaVuSans-97"/>
       <use x="205.224609" xlink:href="#DejaVuSans-108"/>
       <use x="233.007812" xlink:href="#DejaVuSans-95"/>
       <use x="283.007812" xlink:href="#DejaVuSans-109"/>
       <use x="380.419922" xlink:href="#DejaVuSans-97"/>
       <use x="441.699219" xlink:href="#DejaVuSans-120"/>
       <use x="500.878906" xlink:href="#DejaVuSans-105"/>
       <use x="528.662109" xlink:href="#DejaVuSans-109"/>
       <use x="626.074219" xlink:href="#DejaVuSans-97"/>
      </g>
     </g>
    </g>
    <g id="xtick_16">
     <g id="line2d_16">
      <g>
       <use style="stroke:#000000;stroke-width:0.8;" x="250.046342" xlink:href="#m9b9f42c107" y="192.71"/>
      </g>
     </g>
     <g id="text_16">
      <!-- log_likelihood -->
      <g transform="translate(252.666655 267.5725)rotate(-90)scale(0.1 -0.1)">
       <use xlink:href="#DejaVuSans-108"/>
       <use x="27.783203" xlink:href="#DejaVuSans-111"/>
       <use x="88.964844" xlink:href="#DejaVuSans-103"/>
       <use x="152.441406" xlink:href="#DejaVuSans-95"/>
       <use x="202.441406" xlink:href="#DejaVuSans-108"/>
       <use x="230.224609" xlink:href="#DejaVuSans-105"/>
       <use x="258.007812" xlink:href="#DejaVuSans-107"/>
       <use x="312.292969" xlink:href="#DejaVuSans-101"/>
       <use x="373.816406" xlink:href="#DejaVuSans-108"/>
       <use x="401.599609" xlink:href="#DejaVuSans-105"/>
       <use x="429.382812" xlink:href="#DejaVuSans-104"/>
       <use x="492.761719" xlink:href="#DejaVuSans-111"/>
       <use x="553.943359" xlink:href="#DejaVuSans-111"/>
       <use x="615.125" xlink:href="#DejaVuSans-100"/>
      </g>
     </g>
    </g>
    <g id="xtick_17">
     <g id="line2d_17">
      <g>
       <use style="stroke:#000000;stroke-width:0.8;" x="261.92713" xlink:href="#m9b9f42c107" y="192.71"/>
      </g>
     </g>
     <g id="text_17">
      <!-- lstsqr -->
      <g transform="translate(264.686505 227.286563)rotate(-90)scale(0.1 -0.1)">
       <use xlink:href="#DejaVuSans-108"/>
       <use x="27.783203" xlink:href="#DejaVuSans-115"/>
       <use x="79.882812" xlink:href="#DejaVuSans-116"/>
       <use x="119.091797" xlink:href="#DejaVuSans-115"/>
       <use x="171.191406" xlink:href="#DejaVuSans-113"/>
       <use x="234.667969" xlink:href="#DejaVuSans-114"/>
      </g>
     </g>
    </g>
    <g id="xtick_18">
     <g id="line2d_18">
      <g>
       <use style="stroke:#000000;stroke-width:0.8;" x="273.807918" xlink:href="#m9b9f42c107" y="192.71"/>
      </g>
     </g>
     <g id="text_18">
      <!-- make_decision -->
      <g transform="translate(276.42823 273.381875)rotate(-90)scale(0.1 -0.1)">
       <use xlink:href="#DejaVuSans-109"/>
       <use x="97.412109" xlink:href="#DejaVuSans-97"/>
       <use x="158.691406" xlink:href="#DejaVuSans-107"/>
       <use x="212.976562" xlink:href="#DejaVuSans-101"/>
       <use x="274.5" xlink:href="#DejaVuSans-95"/>
       <use x="324.5" xlink:href="#DejaVuSans-100"/>
       <use x="387.976562" xlink:href="#DejaVuSans-101"/>
       <use x="449.5" xlink:href="#DejaVuSans-99"/>
       <use x="504.480469" xlink:href="#DejaVuSans-105"/>
       <use x="532.263672" xlink:href="#DejaVuSans-115"/>
       <use x="584.363281" xlink:href="#DejaVuSans-105"/>
       <use x="612.146484" xlink:href="#DejaVuSans-111"/>
       <use x="673.328125" xlink:href="#DejaVuSans-110"/>
      </g>
     </g>
    </g>
    <g id="xtick_19">
     <g id="line2d_19">
      <g>
       <use style="stroke:#000000;stroke-width:0.8;" x="285.688706" xlink:href="#m9b9f42c107" y="192.71"/>
      </g>
     </g>
     <g id="text_19">
      <!-- mandelbrot -->
      <g transform="translate(288.448081 257.469375)rotate(-90)scale(0.1 -0.1)">
       <use xlink:href="#DejaVuSans-109"/>
       <use x="97.412109" xlink:href="#DejaVuSans-97"/>
       <use x="158.691406" xlink:href="#DejaVuSans-110"/>
       <use x="222.070312" xlink:href="#DejaVuSans-100"/>
       <use x="285.546875" xlink:href="#DejaVuSans-101"/>
       <use x="347.070312" xlink:href="#DejaVuSans-108"/>
       <use x="374.853516" xlink:href="#DejaVuSans-98"/>
       <use x="438.330078" xlink:href="#DejaVuSans-114"/>
       <use x="477.193359" xlink:href="#DejaVuSans-111"/>
       <use x="538.375" xlink:href="#DejaVuSans-116"/>
      </g>
     </g>
    </g>
    <g id="xtick_20">
     <g id="line2d_20">
      <g>
       <use style="stroke:#000000;stroke-width:0.8;" x="297.569493" xlink:href="#m9b9f42c107" y="192.71"/>
      </g>
     </g>
     <g id="text_20">
      <!-- multiple_sum -->
      <g transform="translate(300.189806 266.831875)rotate(-90)scale(0.1 -0.1)">
       <use xlink:href="#DejaVuSans-109"/>
       <use x="97.412109" xlink:href="#DejaVuSans-117"/>
       <use x="160.791016" xlink:href="#DejaVuSans-108"/>
       <use x="188.574219" xlink:href="#DejaVuSans-116"/>
       <use x="227.783203" xlink:href="#DejaVuSans-105"/>
       <use x="255.566406" xlink:href="#DejaVuSans-112"/>
       <use x="319.042969" xlink:href="#DejaVuSans-108"/>
       <use x="346.826172" xlink:href="#DejaVuSans-101"/>
       <use x="408.349609" xlink:href="#DejaVuSans-95"/>
       <use x="458.349609" xlink:href="#DejaVuSans-115"/>
       <use x="510.449219" xlink:href="#DejaVuSans-117"/>
       <use x="573.828125" xlink:href="#DejaVuSans-109"/>
      </g>
     </g>
    </g>
    <g id="xtick_21">
     <g id="line2d_21">
      <g>
       <use style="stroke:#000000;stroke-width:0.8;" x="309.450281" xlink:href="#m9b9f42c107" y="192.71"/>
      </g>
     </g>
     <g id="text_21">
      <!-- normalize_complex_arr -->
      <g transform="translate(312.070594 315.485)rotate(-90)scale(0.1 -0.1)">
       <defs>
        <path d="M 5.515625 54.6875 
L 48.1875 54.6875 
L 48.1875 46.484375 
L 14.40625 7.171875 
L 48.1875 7.171875 
L 48.1875 0 
L 4.296875 0 
L 4.296875 8.203125 
L 38.09375 47.515625 
L 5.515625 47.515625 
z
" id="DejaVuSans-122"/>
       </defs>
       <use xlink:href="#DejaVuSans-110"/>
       <use x="63.378906" xlink:href="#DejaVuSans-111"/>
       <use x="124.560547" xlink:href="#DejaVuSans-114"/>
       <use x="163.923828" xlink:href="#DejaVuSans-109"/>
       <use x="261.335938" xlink:href="#DejaVuSans-97"/>
       <use x="322.615234" xlink:href="#DejaVuSans-108"/>
       <use x="350.398438" xlink:href="#DejaVuSans-105"/>
       <use x="378.181641" xlink:href="#DejaVuSans-122"/>
       <use x="430.671875" xlink:href="#DejaVuSans-101"/>
       <use x="492.195312" xlink:href="#DejaVuSans-95"/>
       <use x="542.195312" xlink:href="#DejaVuSans-99"/>
       <use x="597.175781" xlink:href="#DejaVuSans-111"/>
       <use x="658.357422" xlink:href="#DejaVuSans-109"/>
       <use x="755.769531" xlink:href="#DejaVuSans-112"/>
       <use x="819.246094" xlink:href="#DejaVuSans-108"/>
       <use x="847.029297" xlink:href="#DejaVuSans-101"/>
       <use x="906.802734" xlink:href="#DejaVuSans-120"/>
       <use x="965.982422" xlink:href="#DejaVuSans-95"/>
       <use x="1015.982422" xlink:href="#DejaVuSans-97"/>
       <use x="1077.261719" xlink:href="#DejaVuSans-114"/>
       <use x="1116.625" xlink:href="#DejaVuSans-114"/>
      </g>
     </g>
    </g>
    <g id="xtick_22">
     <g id="line2d_22">
      <g>
       <use style="stroke:#000000;stroke-width:0.8;" x="321.331069" xlink:href="#m9b9f42c107" y="192.71"/>
      </g>
     </g>
     <g id="text_22">
      <!-- pairwise -->
      <g transform="translate(324.090444 241.394375)rotate(-90)scale(0.1 -0.1)">
       <defs>
        <path d="M 4.203125 54.6875 
L 13.1875 54.6875 
L 24.421875 12.015625 
L 35.59375 54.6875 
L 46.1875 54.6875 
L 57.421875 12.015625 
L 68.609375 54.6875 
L 77.59375 54.6875 
L 63.28125 0 
L 52.6875 0 
L 40.921875 44.828125 
L 29.109375 0 
L 18.5 0 
z
" id="DejaVuSans-119"/>
       </defs>
       <use xlink:href="#DejaVuSans-112"/>
       <use x="63.476562" xlink:href="#DejaVuSans-97"/>
       <use x="124.755859" xlink:href="#DejaVuSans-105"/>
       <use x="152.539062" xlink:href="#DejaVuSans-114"/>
       <use x="193.652344" xlink:href="#DejaVuSans-119"/>
       <use x="275.439453" xlink:href="#DejaVuSans-105"/>
       <use x="303.222656" xlink:href="#DejaVuSans-115"/>
       <use x="355.322266" xlink:href="#DejaVuSans-101"/>
      </g>
     </g>
    </g>
    <g id="xtick_23">
     <g id="line2d_23">
      <g>
       <use style="stroke:#000000;stroke-width:0.8;" x="333.211857" xlink:href="#m9b9f42c107" y="192.71"/>
      </g>
     </g>
     <g id="text_23">
      <!-- periodic_dist -->
      <g transform="translate(335.832169 263.100625)rotate(-90)scale(0.1 -0.1)">
       <use xlink:href="#DejaVuSans-112"/>
       <use x="63.476562" xlink:href="#DejaVuSans-101"/>
       <use x="125" xlink:href="#DejaVuSans-114"/>
       <use x="166.113281" xlink:href="#DejaVuSans-105"/>
       <use x="193.896484" xlink:href="#DejaVuSans-111"/>
       <use x="255.078125" xlink:href="#DejaVuSans-100"/>
       <use x="318.554688" xlink:href="#DejaVuSans-105"/>
       <use x="346.337891" xlink:href="#DejaVuSans-99"/>
       <use x="401.318359" xlink:href="#DejaVuSans-95"/>
       <use x="451.318359" xlink:href="#DejaVuSans-100"/>
       <use x="514.794922" xlink:href="#DejaVuSans-105"/>
       <use x="542.578125" xlink:href="#DejaVuSans-115"/>
       <use x="594.677734" xlink:href="#DejaVuSans-116"/>
      </g>
     </g>
    </g>
    <g id="xtick_24">
     <g id="line2d_24">
      <g>
       <use style="stroke:#000000;stroke-width:0.8;" x="345.092644" xlink:href="#m9b9f42c107" y="192.71"/>
      </g>
     </g>
     <g id="text_24">
      <!-- repeating -->
      <g transform="translate(347.852019 247.763125)rotate(-90)scale(0.1 -0.1)">
       <use xlink:href="#DejaVuSans-114"/>
       <use x="38.863281" xlink:href="#DejaVuSans-101"/>
       <use x="100.386719" xlink:href="#DejaVuSans-112"/>
       <use x="163.863281" xlink:href="#DejaVuSans-101"/>
       <use x="225.386719" xlink:href="#DejaVuSans-97"/>
       <use x="286.666016" xlink:href="#DejaVuSans-116"/>
       <use x="325.875" xlink:href="#DejaVuSans-105"/>
       <use x="353.658203" xlink:href="#DejaVuSans-110"/>
       <use x="417.037109" xlink:href="#DejaVuSans-103"/>
      </g>
     </g>
    </g>
    <g id="xtick_25">
     <g id="line2d_25">
      <g>
       <use style="stroke:#000000;stroke-width:0.8;" x="356.973432" xlink:href="#m9b9f42c107" y="192.71"/>
      </g>
     </g>
     <g id="text_25">
      <!-- reverse_cumsum -->
      <g transform="translate(359.454682 285.158437)rotate(-90)scale(0.1 -0.1)">
       <use xlink:href="#DejaVuSans-114"/>
       <use x="38.863281" xlink:href="#DejaVuSans-101"/>
       <use x="100.386719" xlink:href="#DejaVuSans-118"/>
       <use x="159.566406" xlink:href="#DejaVuSans-101"/>
       <use x="221.089844" xlink:href="#DejaVuSans-114"/>
       <use x="262.203125" xlink:href="#DejaVuSans-115"/>
       <use x="314.302734" xlink:href="#DejaVuSans-101"/>
       <use x="375.826172" xlink:href="#DejaVuSans-95"/>
       <use x="425.826172" xlink:href="#DejaVuSans-99"/>
       <use x="480.806641" xlink:href="#DejaVuSans-117"/>
       <use x="544.185547" xlink:href="#DejaVuSans-109"/>
       <use x="641.597656" xlink:href="#DejaVuSans-115"/>
       <use x="693.697266" xlink:href="#DejaVuSans-117"/>
       <use x="757.076172" xlink:href="#DejaVuSans-109"/>
      </g>
     </g>
    </g>
    <g id="xtick_26">
     <g id="line2d_26">
      <g>
       <use style="stroke:#000000;stroke-width:0.8;" x="368.85422" xlink:href="#m9b9f42c107" y="192.71"/>
      </g>
     </g>
     <g id="text_26">
      <!-- rosen -->
      <g transform="translate(371.613595 227.414688)rotate(-90)scale(0.1 -0.1)">
       <use xlink:href="#DejaVuSans-114"/>
       <use x="38.863281" xlink:href="#DejaVuSans-111"/>
       <use x="100.044922" xlink:href="#DejaVuSans-115"/>
       <use x="152.144531" xlink:href="#DejaVuSans-101"/>
       <use x="213.667969" xlink:href="#DejaVuSans-110"/>
      </g>
     </g>
    </g>
    <g id="xtick_27">
     <g id="line2d_27">
      <g>
       <use style="stroke:#000000;stroke-width:0.8;" x="380.735007" xlink:href="#m9b9f42c107" y="192.71"/>
      </g>
     </g>
     <g id="text_27">
      <!-- slowparts -->
      <g transform="translate(383.494382 247.711563)rotate(-90)scale(0.1 -0.1)">
       <use xlink:href="#DejaVuSans-115"/>
       <use x="52.099609" xlink:href="#DejaVuSans-108"/>
       <use x="79.882812" xlink:href="#DejaVuSans-111"/>
       <use x="141.064453" xlink:href="#DejaVuSans-119"/>
       <use x="222.851562" xlink:href="#DejaVuSans-112"/>
       <use x="286.328125" xlink:href="#DejaVuSans-97"/>
       <use x="347.607422" xlink:href="#DejaVuSans-114"/>
       <use x="388.720703" xlink:href="#DejaVuSans-116"/>
       <use x="427.929688" xlink:href="#DejaVuSans-115"/>
      </g>
     </g>
    </g>
    <g id="xtick_28">
     <g id="line2d_28">
      <g>
       <use style="stroke:#000000;stroke-width:0.8;" x="392.615795" xlink:href="#m9b9f42c107" y="192.71"/>
      </g>
     </g>
     <g id="text_28">
      <!-- specialconvolve -->
      <g transform="translate(395.37517 279.445938)rotate(-90)scale(0.1 -0.1)">
       <use xlink:href="#DejaVuSans-115"/>
       <use x="52.099609" xlink:href="#DejaVuSans-112"/>
       <use x="115.576172" xlink:href="#DejaVuSans-101"/>
       <use x="177.099609" xlink:href="#DejaVuSans-99"/>
       <use x="232.080078" xlink:href="#DejaVuSans-105"/>
       <use x="259.863281" xlink:href="#DejaVuSans-97"/>
       <use x="321.142578" xlink:href="#DejaVuSans-108"/>
       <use x="348.925781" xlink:href="#DejaVuSans-99"/>
       <use x="403.90625" xlink:href="#DejaVuSans-111"/>
       <use x="465.087891" xlink:href="#DejaVuSans-110"/>
       <use x="528.466797" xlink:href="#DejaVuSans-118"/>
       <use x="587.646484" xlink:href="#DejaVuSans-111"/>
       <use x="648.828125" xlink:href="#DejaVuSans-108"/>
       <use x="676.611328" xlink:href="#DejaVuSans-118"/>
       <use x="735.791016" xlink:href="#DejaVuSans-101"/>
      </g>
     </g>
    </g>
    <g id="xtick_29">
     <g id="line2d_29">
      <g>
       <use style="stroke:#000000;stroke-width:0.8;" x="404.496583" xlink:href="#m9b9f42c107" y="192.71"/>
      </g>
     </g>
     <g id="text_29">
      <!-- vibr_energy -->
      <g transform="translate(407.116895 258.713125)rotate(-90)scale(0.1 -0.1)">
       <use xlink:href="#DejaVuSans-118"/>
       <use x="59.179688" xlink:href="#DejaVuSans-105"/>
       <use x="86.962891" xlink:href="#DejaVuSans-98"/>
       <use x="150.439453" xlink:href="#DejaVuSans-114"/>
       <use x="191.552734" xlink:href="#DejaVuSans-95"/>
       <use x="241.552734" xlink:href="#DejaVuSans-101"/>
       <use x="303.076172" xlink:href="#DejaVuSans-110"/>
       <use x="366.455078" xlink:href="#DejaVuSans-101"/>
       <use x="427.978516" xlink:href="#DejaVuSans-114"/>
       <use x="467.341797" xlink:href="#DejaVuSans-103"/>
       <use x="530.818359" xlink:href="#DejaVuSans-121"/>
      </g>
     </g>
    </g>
    <g id="xtick_30">
     <g id="line2d_30">
      <g>
       <use style="stroke:#000000;stroke-width:0.8;" x="416.377371" xlink:href="#m9b9f42c107" y="192.71"/>
      </g>
     </g>
     <g id="text_30">
      <!-- wave -->
      <g transform="translate(419.136746 226.088125)rotate(-90)scale(0.1 -0.1)">
       <use xlink:href="#DejaVuSans-119"/>
       <use x="81.787109" xlink:href="#DejaVuSans-97"/>
       <use x="143.066406" xlink:href="#DejaVuSans-118"/>
       <use x="202.246094" xlink:href="#DejaVuSans-101"/>
      </g>
     </g>
    </g>
    <g id="xtick_31">
     <g id="line2d_31">
      <g>
       <use style="stroke:#000000;stroke-width:0.8;" x="428.258158" xlink:href="#m9b9f42c107" y="192.71"/>
      </g>
     </g>
     <g id="text_31">
      <!-- wdist -->
      <g transform="translate(431.017533 226.144375)rotate(-90)scale(0.1 -0.1)">
       <use xlink:href="#DejaVuSans-119"/>
       <use x="81.787109" xlink:href="#DejaVuSans-100"/>
       <use x="145.263672" xlink:href="#DejaVuSans-105"/>
       <use x="173.046875" xlink:href="#DejaVuSans-115"/>
       <use x="225.146484" xlink:href="#DejaVuSans-116"/>
      </g>
     </g>
    </g>
   </g>
   <g id="matplotlib.axis_2">
    <g id="ytick_1">
     <g id="line2d_32">
      <defs>
       <path d="M 0 0 
L -3.5 0 
" id="mdedcf39076" style="stroke:#000000;stroke-width:0.8;"/>
      </defs>
      <g>
       <use style="stroke:#000000;stroke-width:0.8;" x="50.092685" xlink:href="#mdedcf39076" y="162.272925"/>
      </g>
     </g>
     <g id="text_32">
      <!-- $\mathdefault{10^{0}}$ -->
      <g transform="translate(25.492685 166.072144)scale(0.1 -0.1)">
       <defs>
        <path d="M 31.78125 66.40625 
Q 24.171875 66.40625 20.328125 58.90625 
Q 16.5 51.421875 16.5 36.375 
Q 16.5 21.390625 20.328125 13.890625 
Q 24.171875 6.390625 31.78125 6.390625 
Q 39.453125 6.390625 43.28125 13.890625 
Q 47.125 21.390625 47.125 36.375 
Q 47.125 51.421875 43.28125 58.90625 
Q 39.453125 66.40625 31.78125 66.40625 
z
M 31.78125 74.21875 
Q 44.046875 74.21875 50.515625 64.515625 
Q 56.984375 54.828125 56.984375 36.375 
Q 56.984375 17.96875 50.515625 8.265625 
Q 44.046875 -1.421875 31.78125 -1.421875 
Q 19.53125 -1.421875 13.0625 8.265625 
Q 6.59375 17.96875 6.59375 36.375 
Q 6.59375 54.828125 13.0625 64.515625 
Q 19.53125 74.21875 31.78125 74.21875 
z
" id="DejaVuSans-48"/>
       </defs>
       <use transform="translate(0 0.765625)" xlink:href="#DejaVuSans-49"/>
       <use transform="translate(63.623047 0.765625)" xlink:href="#DejaVuSans-48"/>
       <use transform="translate(128.203125 39.046875)scale(0.7)" xlink:href="#DejaVuSans-48"/>
      </g>
     </g>
    </g>
    <g id="ytick_2">
     <g id="line2d_33">
      <g>
       <use style="stroke:#000000;stroke-width:0.8;" x="50.092685" xlink:href="#mdedcf39076" y="93.15495"/>
      </g>
     </g>
     <g id="text_33">
      <!-- $\mathdefault{10^{1}}$ -->
      <g transform="translate(25.492685 96.954169)scale(0.1 -0.1)">
       <use transform="translate(0 0.684375)" xlink:href="#DejaVuSans-49"/>
       <use transform="translate(63.623047 0.684375)" xlink:href="#DejaVuSans-48"/>
       <use transform="translate(128.203125 38.965625)scale(0.7)" xlink:href="#DejaVuSans-49"/>
      </g>
     </g>
    </g>
    <g id="ytick_3">
     <g id="line2d_34">
      <g>
       <use style="stroke:#000000;stroke-width:0.8;" x="50.092685" xlink:href="#mdedcf39076" y="24.036975"/>
      </g>
     </g>
     <g id="text_34">
      <!-- $\mathdefault{10^{2}}$ -->
      <g transform="translate(25.492685 27.836194)scale(0.1 -0.1)">
       <use transform="translate(0 0.765625)" xlink:href="#DejaVuSans-49"/>
       <use transform="translate(63.623047 0.765625)" xlink:href="#DejaVuSans-48"/>
       <use transform="translate(128.203125 39.046875)scale(0.7)" xlink:href="#DejaVuSans-50"/>
      </g>
     </g>
    </g>
    <g id="ytick_4">
     <g id="line2d_35">
      <defs>
       <path d="M 0 0 
L -2 0 
" id="m3fb2fc442a" style="stroke:#000000;stroke-width:0.6;"/>
      </defs>
      <g>
       <use style="stroke:#000000;stroke-width:0.6;" x="50.092685" xlink:href="#m3fb2fc442a" y="189.777733"/>
      </g>
     </g>
    </g>
    <g id="ytick_5">
     <g id="line2d_36">
      <g>
       <use style="stroke:#000000;stroke-width:0.6;" x="50.092685" xlink:href="#m3fb2fc442a" y="183.079509"/>
      </g>
     </g>
    </g>
    <g id="ytick_6">
     <g id="line2d_37">
      <g>
       <use style="stroke:#000000;stroke-width:0.6;" x="50.092685" xlink:href="#m3fb2fc442a" y="177.606662"/>
      </g>
     </g>
    </g>
    <g id="ytick_7">
     <g id="line2d_38">
      <g>
       <use style="stroke:#000000;stroke-width:0.6;" x="50.092685" xlink:href="#m3fb2fc442a" y="172.979435"/>
      </g>
     </g>
    </g>
    <g id="ytick_8">
     <g id="line2d_39">
      <g>
       <use style="stroke:#000000;stroke-width:0.6;" x="50.092685" xlink:href="#m3fb2fc442a" y="168.971149"/>
      </g>
     </g>
    </g>
    <g id="ytick_9">
     <g id="line2d_40">
      <g>
       <use style="stroke:#000000;stroke-width:0.6;" x="50.092685" xlink:href="#m3fb2fc442a" y="165.43559"/>
      </g>
     </g>
    </g>
    <g id="ytick_10">
     <g id="line2d_41">
      <g>
       <use style="stroke:#000000;stroke-width:0.6;" x="50.092685" xlink:href="#m3fb2fc442a" y="141.466342"/>
      </g>
     </g>
    </g>
    <g id="ytick_11">
     <g id="line2d_42">
      <g>
       <use style="stroke:#000000;stroke-width:0.6;" x="50.092685" xlink:href="#m3fb2fc442a" y="129.29527"/>
      </g>
     </g>
    </g>
    <g id="ytick_12">
     <g id="line2d_43">
      <g>
       <use style="stroke:#000000;stroke-width:0.6;" x="50.092685" xlink:href="#m3fb2fc442a" y="120.659758"/>
      </g>
     </g>
    </g>
    <g id="ytick_13">
     <g id="line2d_44">
      <g>
       <use style="stroke:#000000;stroke-width:0.6;" x="50.092685" xlink:href="#m3fb2fc442a" y="113.961534"/>
      </g>
     </g>
    </g>
    <g id="ytick_14">
     <g id="line2d_45">
      <g>
       <use style="stroke:#000000;stroke-width:0.6;" x="50.092685" xlink:href="#m3fb2fc442a" y="108.488687"/>
      </g>
     </g>
    </g>
    <g id="ytick_15">
     <g id="line2d_46">
      <g>
       <use style="stroke:#000000;stroke-width:0.6;" x="50.092685" xlink:href="#m3fb2fc442a" y="103.86146"/>
      </g>
     </g>
    </g>
    <g id="ytick_16">
     <g id="line2d_47">
      <g>
       <use style="stroke:#000000;stroke-width:0.6;" x="50.092685" xlink:href="#m3fb2fc442a" y="99.853174"/>
      </g>
     </g>
    </g>
    <g id="ytick_17">
     <g id="line2d_48">
      <g>
       <use style="stroke:#000000;stroke-width:0.6;" x="50.092685" xlink:href="#m3fb2fc442a" y="96.317615"/>
      </g>
     </g>
    </g>
    <g id="ytick_18">
     <g id="line2d_49">
      <g>
       <use style="stroke:#000000;stroke-width:0.6;" x="50.092685" xlink:href="#m3fb2fc442a" y="72.348366"/>
      </g>
     </g>
    </g>
    <g id="ytick_19">
     <g id="line2d_50">
      <g>
       <use style="stroke:#000000;stroke-width:0.6;" x="50.092685" xlink:href="#m3fb2fc442a" y="60.177295"/>
      </g>
     </g>
    </g>
    <g id="ytick_20">
     <g id="line2d_51">
      <g>
       <use style="stroke:#000000;stroke-width:0.6;" x="50.092685" xlink:href="#m3fb2fc442a" y="51.541783"/>
      </g>
     </g>
    </g>
    <g id="ytick_21">
     <g id="line2d_52">
      <g>
       <use style="stroke:#000000;stroke-width:0.6;" x="50.092685" xlink:href="#m3fb2fc442a" y="44.843559"/>
      </g>
     </g>
    </g>
    <g id="ytick_22">
     <g id="line2d_53">
      <g>
       <use style="stroke:#000000;stroke-width:0.6;" x="50.092685" xlink:href="#m3fb2fc442a" y="39.370711"/>
      </g>
     </g>
    </g>
    <g id="ytick_23">
     <g id="line2d_54">
      <g>
       <use style="stroke:#000000;stroke-width:0.6;" x="50.092685" xlink:href="#m3fb2fc442a" y="34.743485"/>
      </g>
     </g>
    </g>
    <g id="ytick_24">
     <g id="line2d_55">
      <g>
       <use style="stroke:#000000;stroke-width:0.6;" x="50.092685" xlink:href="#m3fb2fc442a" y="30.735199"/>
      </g>
     </g>
    </g>
    <g id="ytick_25">
     <g id="line2d_56">
      <g>
       <use style="stroke:#000000;stroke-width:0.6;" x="50.092685" xlink:href="#m3fb2fc442a" y="27.19964"/>
      </g>
     </g>
    </g>
    <g id="text_35">
     <!-- Speedup with respect to python -->
     <g transform="translate(19.412997 181.831563)rotate(-90)scale(0.1 -0.1)">
      <defs>
       <path d="M 53.515625 70.515625 
L 53.515625 60.890625 
Q 47.90625 63.578125 42.921875 64.890625 
Q 37.9375 66.21875 33.296875 66.21875 
Q 25.25 66.21875 20.875 63.09375 
Q 16.5 59.96875 16.5 54.203125 
Q 16.5 49.359375 19.40625 46.890625 
Q 22.3125 44.4375 30.421875 42.921875 
L 36.375 41.703125 
Q 47.40625 39.59375 52.65625 34.296875 
Q 57.90625 29 57.90625 20.125 
Q 57.90625 9.515625 50.796875 4.046875 
Q 43.703125 -1.421875 29.984375 -1.421875 
Q 24.8125 -1.421875 18.96875 -0.25 
Q 13.140625 0.921875 6.890625 3.21875 
L 6.890625 13.375 
Q 12.890625 10.015625 18.65625 8.296875 
Q 24.421875 6.59375 29.984375 6.59375 
Q 38.421875 6.59375 43.015625 9.90625 
Q 47.609375 13.234375 47.609375 19.390625 
Q 47.609375 24.75 44.3125 27.78125 
Q 41.015625 30.8125 33.5 32.328125 
L 27.484375 33.5 
Q 16.453125 35.6875 11.515625 40.375 
Q 6.59375 45.0625 6.59375 53.421875 
Q 6.59375 63.09375 13.40625 68.65625 
Q 20.21875 74.21875 32.171875 74.21875 
Q 37.3125 74.21875 42.625 73.28125 
Q 47.953125 72.359375 53.515625 70.515625 
z
" id="DejaVuSans-83"/>
       <path id="DejaVuSans-32"/>
      </defs>
      <use xlink:href="#DejaVuSans-83"/>
      <use x="63.476562" xlink:href="#DejaVuSans-112"/>
      <use x="126.953125" xlink:href="#DejaVuSans-101"/>
      <use x="188.476562" xlink:href="#DejaVuSans-101"/>
      <use x="250" xlink:href="#DejaVuSans-100"/>
      <use x="313.476562" xlink:href="#DejaVuSans-117"/>
      <use x="376.855469" xlink:href="#DejaVuSans-112"/>
      <use x="440.332031" xlink:href="#DejaVuSans-32"/>
      <use x="472.119141" xlink:href="#DejaVuSans-119"/>
      <use x="553.90625" xlink:href="#DejaVuSans-105"/>
      <use x="581.689453" xlink:href="#DejaVuSans-116"/>
      <use x="620.898438" xlink:href="#DejaVuSans-104"/>
      <use x="684.277344" xlink:href="#DejaVuSans-32"/>
      <use x="716.064453" xlink:href="#DejaVuSans-114"/>
      <use x="754.927734" xlink:href="#DejaVuSans-101"/>
      <use x="816.451172" xlink:href="#DejaVuSans-115"/>
      <use x="868.550781" xlink:href="#DejaVuSans-112"/>
      <use x="932.027344" xlink:href="#DejaVuSans-101"/>
      <use x="993.550781" xlink:href="#DejaVuSans-99"/>
      <use x="1048.53125" xlink:href="#DejaVuSans-116"/>
      <use x="1087.740234" xlink:href="#DejaVuSans-32"/>
      <use x="1119.527344" xlink:href="#DejaVuSans-116"/>
      <use x="1158.736328" xlink:href="#DejaVuSans-111"/>
      <use x="1219.917969" xlink:href="#DejaVuSans-32"/>
      <use x="1251.705078" xlink:href="#DejaVuSans-112"/>
      <use x="1315.181641" xlink:href="#DejaVuSans-121"/>
      <use x="1374.361328" xlink:href="#DejaVuSans-116"/>
      <use x="1413.570312" xlink:href="#DejaVuSans-104"/>
      <use x="1476.949219" xlink:href="#DejaVuSans-111"/>
      <use x="1538.130859" xlink:href="#DejaVuSans-110"/>
     </g>
    </g>
   </g>
   <g id="patch_96">
    <path d="M 50.092685 192.71 
L 50.092685 10.8 
" style="fill:none;stroke:#000000;stroke-linecap:square;stroke-linejoin:miter;stroke-width:0.8;"/>
   </g>
   <g id="patch_97">
    <path d="M 450 192.71 
L 450 10.8 
" style="fill:none;stroke:#000000;stroke-linecap:square;stroke-linejoin:miter;stroke-width:0.8;"/>
   </g>
   <g id="patch_98">
    <path d="M 50.092685 192.71 
L 450 192.71 
" style="fill:none;stroke:#000000;stroke-linecap:square;stroke-linejoin:miter;stroke-width:0.8;"/>
   </g>
   <g id="patch_99">
    <path d="M 50.092685 10.8 
L 450 10.8 
" style="fill:none;stroke:#000000;stroke-linecap:square;stroke-linejoin:miter;stroke-width:0.8;"/>
   </g>
   <g id="legend_1">
    <g id="patch_100">
     <path d="M 57.092685 48.15625 
L 211.175497 48.15625 
Q 213.175497 48.15625 213.175497 46.15625 
L 213.175497 17.8 
Q 213.175497 15.8 211.175497 15.8 
L 57.092685 15.8 
Q 55.092685 15.8 55.092685 17.8 
L 55.092685 46.15625 
Q 55.092685 48.15625 57.092685 48.15625 
z
" style="fill:#ffffff;opacity:0.8;stroke:#cccccc;stroke-linejoin:miter;"/>
    </g>
    <g id="patch_101">
     <path d="M 59.092685 27.398438 
L 79.092685 27.398438 
L 79.092685 20.398438 
L 59.092685 20.398438 
z
" style="fill:#1f77b4;"/>
    </g>
    <g id="text_36">
     <!-- numba -->
     <g transform="translate(87.092685 27.398438)scale(0.1 -0.1)">
      <use xlink:href="#DejaVuSans-110"/>
      <use x="63.378906" xlink:href="#DejaVuSans-117"/>
      <use x="126.757812" xlink:href="#DejaVuSans-109"/>
      <use x="224.169922" xlink:href="#DejaVuSans-98"/>
      <use x="287.646484" xlink:href="#DejaVuSans-97"/>
     </g>
    </g>
    <g id="patch_102">
     <path d="M 59.092685 42.076563 
L 79.092685 42.076563 
L 79.092685 35.076563 
L 59.092685 35.076563 
z
" style="fill:#ff7f0e;"/>
    </g>
    <g id="text_37">
     <!-- python -->
     <g transform="translate(87.092685 42.076563)scale(0.1 -0.1)">
      <use xlink:href="#DejaVuSans-112"/>
      <use x="63.476562" xlink:href="#DejaVuSans-121"/>
      <use x="122.65625" xlink:href="#DejaVuSans-116"/>
      <use x="161.865234" xlink:href="#DejaVuSans-104"/>
      <use x="225.244141" xlink:href="#DejaVuSans-111"/>
      <use x="286.425781" xlink:href="#DejaVuSans-110"/>
     </g>
    </g>
    <g id="patch_103">
     <path d="M 142.073935 27.398438 
L 162.073935 27.398438 
L 162.073935 20.398438 
L 142.073935 20.398438 
z
" style="fill:#2ca02c;"/>
    </g>
    <g id="text_38">
     <!-- pythran -->
     <g transform="translate(170.073935 27.398438)scale(0.1 -0.1)">
      <use xlink:href="#DejaVuSans-112"/>
      <use x="63.476562" xlink:href="#DejaVuSans-121"/>
      <use x="122.65625" xlink:href="#DejaVuSans-116"/>
      <use x="161.865234" xlink:href="#DejaVuSans-104"/>
      <use x="225.244141" xlink:href="#DejaVuSans-114"/>
      <use x="266.357422" xlink:href="#DejaVuSans-97"/>
      <use x="327.636719" xlink:href="#DejaVuSans-110"/>
     </g>
    </g>
   </g>
  </g>
 </g>
 <defs>
  <clipPath id="p78230dac61">
   <rect height="181.91" width="399.907315" x="50.092685" y="10.8"/>
  </clipPath>
 </defs>
</svg>
